G75*
%MOIN*%
%OFA0B0*%
%FSLAX25Y25*%
%IPPOS*%
%LPD*%
%AMOC8*
5,1,8,0,0,1.08239X$1,22.5*
%
%ADD10C,0.03300*%
%ADD11C,0.08200*%
%ADD12R,0.03300X0.05800*%
%ADD13C,0.00500*%
%ADD14C,0.13800*%
%ADD15C,0.09300*%
%ADD16C,0.07400*%
%ADD17C,0.07099*%
D10*
X0031250Y0031250D03*
X0133250Y0031250D03*
X0235250Y0031250D03*
X0227750Y0125750D03*
X0235250Y0133250D03*
X0329750Y0125750D03*
X0329750Y0227750D03*
X0235250Y0235250D03*
X0227750Y0227750D03*
X0133250Y0235250D03*
X0125750Y0227750D03*
X0031250Y0235250D03*
X0125750Y0329750D03*
X0227750Y0329750D03*
X0329750Y0329750D03*
X0133250Y0133250D03*
X0125750Y0125750D03*
X0031250Y0133250D03*
D11*
X0058750Y0135750D03*
X0068750Y0135750D03*
X0078750Y0135750D03*
X0088750Y0135750D03*
X0098750Y0135750D03*
X0160750Y0135750D03*
X0170750Y0135750D03*
X0180750Y0135750D03*
X0190750Y0135750D03*
X0200750Y0135750D03*
X0262750Y0135750D03*
X0272750Y0135750D03*
X0282750Y0135750D03*
X0292750Y0135750D03*
X0302750Y0135750D03*
X0302750Y0033750D03*
X0292750Y0033750D03*
X0282750Y0033750D03*
X0272750Y0033750D03*
X0262750Y0033750D03*
X0200750Y0033750D03*
X0190750Y0033750D03*
X0180750Y0033750D03*
X0170750Y0033750D03*
X0160750Y0033750D03*
X0098750Y0033750D03*
X0088750Y0033750D03*
X0078750Y0033750D03*
X0068750Y0033750D03*
X0058750Y0033750D03*
X0058750Y0237750D03*
X0068750Y0237750D03*
X0078750Y0237750D03*
X0088750Y0237750D03*
X0098750Y0237750D03*
X0160750Y0237750D03*
X0170750Y0237750D03*
X0180750Y0237750D03*
X0190750Y0237750D03*
X0200750Y0237750D03*
X0262750Y0237750D03*
X0272750Y0237750D03*
X0282750Y0237750D03*
X0292750Y0237750D03*
X0302750Y0237750D03*
D12*
X0315750Y0267750D03*
X0319750Y0267750D03*
X0249350Y0272750D03*
X0246150Y0272750D03*
X0246150Y0282750D03*
X0249350Y0282750D03*
X0249350Y0292750D03*
X0246150Y0292750D03*
X0246150Y0302750D03*
X0249350Y0302750D03*
X0217750Y0267750D03*
X0213750Y0267750D03*
X0147350Y0272750D03*
X0144150Y0272750D03*
X0144150Y0282750D03*
X0147350Y0282750D03*
X0147350Y0292750D03*
X0144150Y0292750D03*
X0144150Y0302750D03*
X0147350Y0302750D03*
X0115750Y0267750D03*
X0111750Y0267750D03*
X0045350Y0272750D03*
X0042150Y0272750D03*
X0042150Y0282750D03*
X0045350Y0282750D03*
X0045350Y0292750D03*
X0042150Y0292750D03*
X0042150Y0302750D03*
X0045350Y0302750D03*
X0045350Y0200750D03*
X0042150Y0200750D03*
X0042150Y0190750D03*
X0045350Y0190750D03*
X0045350Y0180750D03*
X0042150Y0180750D03*
X0042150Y0170750D03*
X0045350Y0170750D03*
X0111750Y0165750D03*
X0115750Y0165750D03*
X0144150Y0170750D03*
X0147350Y0170750D03*
X0147350Y0180750D03*
X0144150Y0180750D03*
X0144150Y0190750D03*
X0147350Y0190750D03*
X0147350Y0200750D03*
X0144150Y0200750D03*
X0213750Y0165750D03*
X0217750Y0165750D03*
X0246150Y0170750D03*
X0249350Y0170750D03*
X0249350Y0180750D03*
X0246150Y0180750D03*
X0246150Y0190750D03*
X0249350Y0190750D03*
X0249350Y0200750D03*
X0246150Y0200750D03*
X0315750Y0165750D03*
X0319750Y0165750D03*
X0249350Y0098750D03*
X0246150Y0098750D03*
X0246150Y0088750D03*
X0249350Y0088750D03*
X0249350Y0078750D03*
X0246150Y0078750D03*
X0246150Y0068750D03*
X0249350Y0068750D03*
X0217750Y0063750D03*
X0213750Y0063750D03*
X0147350Y0068750D03*
X0144150Y0068750D03*
X0144150Y0078750D03*
X0147350Y0078750D03*
X0147350Y0088750D03*
X0144150Y0088750D03*
X0144150Y0098750D03*
X0147350Y0098750D03*
X0115750Y0063750D03*
X0111750Y0063750D03*
X0045350Y0068750D03*
X0042150Y0068750D03*
X0042150Y0078750D03*
X0045350Y0078750D03*
X0045350Y0088750D03*
X0042150Y0088750D03*
X0042150Y0098750D03*
X0045350Y0098750D03*
X0315750Y0063750D03*
X0319750Y0063750D03*
D13*
X0318500Y0063646D02*
X0317000Y0063646D01*
X0317000Y0063250D02*
X0317000Y0064250D01*
X0318500Y0064250D01*
X0318500Y0063250D01*
X0317000Y0063250D01*
X0317000Y0064144D02*
X0318500Y0064144D01*
X0216500Y0064144D02*
X0215000Y0064144D01*
X0215000Y0064250D02*
X0215000Y0063250D01*
X0216500Y0063250D01*
X0216500Y0064250D01*
X0215000Y0064250D01*
X0215000Y0063646D02*
X0216500Y0063646D01*
X0114500Y0063646D02*
X0113000Y0063646D01*
X0113000Y0063250D02*
X0113000Y0064250D01*
X0114500Y0064250D01*
X0114500Y0063250D01*
X0113000Y0063250D01*
X0113000Y0064144D02*
X0114500Y0064144D01*
X0114500Y0165250D02*
X0113000Y0165250D01*
X0113000Y0166250D01*
X0114500Y0166250D01*
X0114500Y0165250D01*
X0114500Y0165342D02*
X0113000Y0165342D01*
X0113000Y0165841D02*
X0114500Y0165841D01*
X0215000Y0165841D02*
X0216500Y0165841D01*
X0216500Y0166250D02*
X0215000Y0166250D01*
X0215000Y0165250D01*
X0216500Y0165250D01*
X0216500Y0166250D01*
X0216500Y0165342D02*
X0215000Y0165342D01*
X0317000Y0165342D02*
X0318500Y0165342D01*
X0318500Y0165250D02*
X0318500Y0166250D01*
X0317000Y0166250D01*
X0317000Y0165250D01*
X0318500Y0165250D01*
X0318500Y0165841D02*
X0317000Y0165841D01*
X0317000Y0267250D02*
X0317000Y0268250D01*
X0318500Y0268250D01*
X0318500Y0267250D01*
X0317000Y0267250D01*
X0317000Y0267537D02*
X0318500Y0267537D01*
X0318500Y0268035D02*
X0317000Y0268035D01*
X0216500Y0268035D02*
X0215000Y0268035D01*
X0215000Y0268250D02*
X0215000Y0267250D01*
X0216500Y0267250D01*
X0216500Y0268250D01*
X0215000Y0268250D01*
X0215000Y0267537D02*
X0216500Y0267537D01*
X0114500Y0267537D02*
X0113000Y0267537D01*
X0113000Y0267250D02*
X0113000Y0268250D01*
X0114500Y0268250D01*
X0114500Y0267250D01*
X0113000Y0267250D01*
X0113000Y0268035D02*
X0114500Y0268035D01*
D14*
X0118750Y0220750D03*
X0140750Y0220750D03*
X0220750Y0220750D03*
X0242750Y0220750D03*
X0322750Y0220750D03*
X0322750Y0322750D03*
X0242750Y0322750D03*
X0220750Y0322750D03*
X0140750Y0322750D03*
X0118750Y0322750D03*
X0038750Y0322750D03*
X0038750Y0220750D03*
X0038750Y0118750D03*
X0118750Y0118750D03*
X0140750Y0118750D03*
X0220750Y0118750D03*
X0242750Y0118750D03*
X0322750Y0118750D03*
D15*
X0292593Y0118356D03*
X0272907Y0118356D03*
X0272907Y0069144D03*
X0292593Y0069144D03*
X0190593Y0069144D03*
X0170907Y0069144D03*
X0170907Y0118356D03*
X0190593Y0118356D03*
X0190593Y0171144D03*
X0170907Y0171144D03*
X0170907Y0220356D03*
X0190593Y0220356D03*
X0190593Y0273144D03*
X0170907Y0273144D03*
X0170907Y0322356D03*
X0190593Y0322356D03*
X0272907Y0322356D03*
X0292593Y0322356D03*
X0292593Y0273144D03*
X0272907Y0273144D03*
X0272907Y0220356D03*
X0292593Y0220356D03*
X0292593Y0171144D03*
X0272907Y0171144D03*
X0088593Y0171144D03*
X0068907Y0171144D03*
X0068907Y0220356D03*
X0088593Y0220356D03*
X0088593Y0273144D03*
X0068907Y0273144D03*
X0068907Y0322356D03*
X0088593Y0322356D03*
X0088593Y0118356D03*
X0068907Y0118356D03*
X0068907Y0069144D03*
X0088593Y0069144D03*
D16*
X0105325Y0093750D03*
X0154175Y0093750D03*
X0207325Y0093750D03*
X0256175Y0093750D03*
X0309325Y0093750D03*
X0309325Y0195750D03*
X0256175Y0195750D03*
X0207325Y0195750D03*
X0154175Y0195750D03*
X0105325Y0195750D03*
X0052175Y0195750D03*
X0052175Y0093750D03*
X0052175Y0297750D03*
X0105325Y0297750D03*
X0154175Y0297750D03*
X0207325Y0297750D03*
X0256175Y0297750D03*
X0309325Y0297750D03*
D17*
X0300467Y0297750D03*
X0265033Y0297750D03*
X0198467Y0297750D03*
X0163033Y0297750D03*
X0096467Y0297750D03*
X0061033Y0297750D03*
X0061033Y0195750D03*
X0096467Y0195750D03*
X0163033Y0195750D03*
X0198467Y0195750D03*
X0265033Y0195750D03*
X0300467Y0195750D03*
X0300467Y0093750D03*
X0265033Y0093750D03*
X0198467Y0093750D03*
X0163033Y0093750D03*
X0096467Y0093750D03*
X0061033Y0093750D03*
M02*
