%
M48
M72
T01C0.0120
T02C0.0200
T03C0.0315
T04C0.0400
T05C0.0472
T06C0.0630
T07C0.1300
%
T01
X3375Y5175
X5163Y6087
X5375Y5875
X6375Y7325
X5463Y8075
X5375Y8575
X4525Y9325
X4575Y10325
X5675Y11025
X7475Y10175
X8475Y9775
X8475Y9225
X9575Y8775
X10375Y7675
X10325Y7275
X10575Y6675
X10825Y6375
X11575Y7175
X11425Y8125
X11375Y8875
X9525Y10775
X7375Y12575
X5375Y16075
X5163Y16287
X6375Y17525
X5463Y18275
X5375Y18775
X4525Y19525
X4575Y20525
X5675Y21225
X7475Y20375
X8475Y19975
X8475Y19425
X9575Y18975
X10375Y17875
X10325Y17475
X10575Y16875
X10825Y16575
X11575Y17375
X11425Y18325
X11375Y19075
X9525Y20975
X7375Y22775
X5375Y26275
X5163Y26487
X6375Y27725
X5463Y28475
X5375Y28975
X4525Y29725
X4575Y30725
X5675Y31425
X7475Y30575
X8475Y30175
X8475Y29625
X9575Y29175
X10375Y28075
X10325Y27675
X10575Y27075
X10825Y26775
X11575Y27575
X11425Y28525
X11375Y29275
X9525Y31175
X7375Y32975
X7325Y28675
X7475Y28325
X7875Y28075
X9710Y26775
X13575Y25575
X15363Y26487
X15575Y26275
X16575Y27725
X17675Y28325
X17525Y28675
X18075Y28075
X18675Y29625
X18675Y30175
X17675Y30575
X15875Y31425
X14775Y30725
X14725Y29725
X15575Y28975
X15663Y28475
X19775Y29175
X20575Y28075
X20525Y27675
X20775Y27075
X21025Y26775
X21775Y27575
X21625Y28525
X21575Y29275
X19725Y31175
X17575Y32975
X19910Y26775
X23775Y25575
X25563Y26487
X25775Y26275
X26775Y27725
X25863Y28475
X25775Y28975
X24925Y29725
X24975Y30725
X26075Y31425
X27875Y30575
X28875Y30175
X28875Y29625
X29975Y29175
X30775Y28075
X30725Y27675
X30975Y27075
X31225Y26775
X31975Y27575
X31825Y28525
X31775Y29275
X29925Y31175
X27775Y32975
X27725Y28675
X27875Y28325
X28275Y28075
X30110Y26775
X27775Y22775
X26075Y21225
X24975Y20525
X24925Y19525
X25775Y18775
X25863Y18275
X26775Y17525
X27875Y18125
X27725Y18475
X28275Y17875
X28875Y19425
X28875Y19975
X29975Y18975
X30775Y17875
X30725Y17475
X30975Y16875
X31225Y16575
X31975Y17375
X31825Y18325
X31775Y19075
X29925Y20975
X27875Y20375
X30110Y16575
X25775Y16075
X25563Y16287
X23775Y15375
X21775Y17375
X21625Y18325
X21575Y19075
X20575Y17875
X20525Y17475
X20775Y16875
X21025Y16575
X19910Y16575
X18075Y17875
X17675Y18125
X17525Y18475
X18675Y19425
X18675Y19975
X17675Y20375
X15875Y21225
X14775Y20525
X14725Y19525
X15575Y18775
X15663Y18275
X16575Y17525
X15363Y16287
X15575Y16075
X13575Y15375
X9710Y16575
X7875Y17875
X7475Y18125
X7325Y18475
X3375Y15375
X7325Y8275
X7475Y7925
X7875Y7675
X9710Y6375
X13575Y5175
X15363Y6087
X15575Y5875
X16575Y7325
X17675Y7925
X17525Y8275
X18075Y7675
X18675Y9225
X18675Y9775
X17675Y10175
X15875Y11025
X14775Y10325
X14725Y9325
X15575Y8575
X15663Y8075
X19775Y8775
X20575Y7675
X20525Y7275
X20775Y6675
X21025Y6375
X21775Y7175
X21625Y8125
X21575Y8875
X19725Y10775
X17575Y12575
X19910Y6375
X23775Y5175
X25563Y6087
X25775Y5875
X26775Y7325
X25863Y8075
X25775Y8575
X24925Y9325
X24975Y10325
X26075Y11025
X27875Y10175
X28875Y9775
X28875Y9225
X29975Y8775
X30775Y7675
X30725Y7275
X30975Y6675
X31225Y6375
X31975Y7175
X31825Y8125
X31775Y8875
X29925Y10775
X27775Y12575
X27725Y8275
X27875Y7925
X28275Y7675
X30110Y6375
X19775Y18975
X19725Y20975
X17575Y22775
X3375Y25575
T02
X5125Y22525
X5125Y21525
X5125Y20525
X6125Y20525
X6125Y21525
X6125Y22525
X6125Y30725
X6125Y31725
X6125Y32725
X5125Y32725
X5125Y31725
X5125Y30725
X15325Y30725
X16325Y30725
X16325Y31725
X16325Y32725
X15325Y32725
X15325Y31725
X15325Y22525
X16325Y22525
X16325Y21525
X16325Y20525
X15325Y20525
X15325Y21525
X15325Y12325
X15325Y11325
X16325Y11325
X16325Y12325
X16325Y10325
X15325Y10325
X6125Y10325
X6125Y11325
X6125Y12325
X5125Y12325
X5125Y11325
X5125Y10325
X25525Y10325
X26525Y10325
X26525Y11325
X26525Y12325
X25525Y12325
X25525Y11325
X25525Y20525
X25525Y21525
X26525Y21525
X26525Y20525
X26525Y22525
X25525Y22525
X25525Y30725
X26525Y30725
X26525Y31725
X26525Y32725
X25525Y32725
X25525Y31725
T03
X25618Y29775
X20732Y29775
X15418Y29775
X10532Y29775
X5218Y29775
X5218Y19575
X10532Y19575
X15418Y19575
X20732Y19575
X25618Y19575
X30932Y19575
X30932Y9375
X25618Y9375
X20732Y9375
X15418Y9375
X10532Y9375
X5218Y9375
X30932Y29775
T04
X30275Y23775
X29275Y23775
X28275Y23775
X27275Y23775
X26275Y23775
X20075Y23775
X19075Y23775
X18075Y23775
X17075Y23775
X16075Y23775
X9875Y23775
X8875Y23775
X7875Y23775
X6875Y23775
X5875Y23775
X5875Y13575
X6875Y13575
X7875Y13575
X8875Y13575
X9875Y13575
X16075Y13575
X17075Y13575
X18075Y13575
X19075Y13575
X20075Y13575
X26275Y13575
X27275Y13575
X28275Y13575
X29275Y13575
X30275Y13575
X30275Y3375
X29275Y3375
X28275Y3375
X27275Y3375
X26275Y3375
X20075Y3375
X19075Y3375
X18075Y3375
X17075Y3375
X16075Y3375
X9875Y3375
X8875Y3375
X7875Y3375
X6875Y3375
X5875Y3375
T05
X6891Y6914
X8859Y6914
X8859Y11836
X6891Y11836
X6891Y17114
X8859Y17114
X8859Y22036
X6891Y22036
X6891Y27314
X8859Y27314
X8859Y32236
X6891Y32236
X17091Y32236
X19059Y32236
X19059Y27314
X17091Y27314
X17091Y22036
X19059Y22036
X19059Y17114
X17091Y17114
X17091Y11836
X19059Y11836
X19059Y6914
X17091Y6914
X27291Y6914
X29259Y6914
X29259Y11836
X27291Y11836
X27291Y17114
X29259Y17114
X29259Y22036
X27291Y22036
X27291Y27314
X29259Y27314
X29259Y32236
X27291Y32236
T06
X26503Y29775
X30047Y29775
X19847Y29775
X16303Y29775
X9647Y29775
X6103Y29775
X6103Y19575
X9647Y19575
X16303Y19575
X19847Y19575
X26503Y19575
X30047Y19575
X30047Y9375
X26503Y9375
X19847Y9375
X16303Y9375
X9647Y9375
X6103Y9375
T07
X3875Y11875
X11875Y11875
X14075Y11875
X22075Y11875
X24275Y11875
X32275Y11875
X32275Y22075
X24275Y22075
X22075Y22075
X14075Y22075
X11875Y22075
X3875Y22075
X3875Y32275
X11875Y32275
X14075Y32275
X22075Y32275
X24275Y32275
X32275Y32275
M30
