G75*
%MOIN*%
%OFA0B0*%
%FSLAX25Y25*%
%IPPOS*%
%LPD*%
%AMOC8*
5,1,8,0,0,1.08239X$1,22.5*
%
%ADD10R,0.07874X0.04724*%
%ADD11R,0.05315X0.02362*%
%ADD12R,0.03937X0.04331*%
%ADD13R,0.04331X0.03937*%
%ADD14R,0.04724X0.02362*%
%ADD15C,0.01181*%
D10*
X0034281Y0067726D03*
X0034281Y0089774D03*
X0034281Y0169726D03*
X0034281Y0191774D03*
X0034281Y0271726D03*
X0034281Y0293774D03*
X0123219Y0293774D03*
X0136281Y0293774D03*
X0136281Y0271726D03*
X0123219Y0271726D03*
X0123219Y0191774D03*
X0136281Y0191774D03*
X0136281Y0169726D03*
X0123219Y0169726D03*
X0123219Y0089774D03*
X0136281Y0089774D03*
X0136281Y0067726D03*
X0123219Y0067726D03*
X0225219Y0067726D03*
X0238281Y0067726D03*
X0238281Y0089774D03*
X0225219Y0089774D03*
X0225219Y0169726D03*
X0238281Y0169726D03*
X0238281Y0191774D03*
X0225219Y0191774D03*
X0225219Y0271726D03*
X0238281Y0271726D03*
X0238281Y0293774D03*
X0225219Y0293774D03*
X0327219Y0293774D03*
X0327219Y0271726D03*
X0327219Y0191774D03*
X0327219Y0169726D03*
X0327219Y0089774D03*
X0327219Y0067726D03*
D11*
X0312750Y0072844D03*
X0312750Y0076781D03*
X0312750Y0080719D03*
X0312750Y0084656D03*
X0252750Y0084656D03*
X0252750Y0080719D03*
X0252750Y0076781D03*
X0252750Y0072844D03*
X0210750Y0072844D03*
X0210750Y0076781D03*
X0210750Y0080719D03*
X0210750Y0084656D03*
X0150750Y0084656D03*
X0150750Y0080719D03*
X0150750Y0076781D03*
X0150750Y0072844D03*
X0108750Y0072844D03*
X0108750Y0076781D03*
X0108750Y0080719D03*
X0108750Y0084656D03*
X0048750Y0084656D03*
X0048750Y0080719D03*
X0048750Y0076781D03*
X0048750Y0072844D03*
X0048750Y0174844D03*
X0048750Y0178781D03*
X0048750Y0182719D03*
X0048750Y0186656D03*
X0108750Y0186656D03*
X0108750Y0182719D03*
X0108750Y0178781D03*
X0108750Y0174844D03*
X0150750Y0174844D03*
X0150750Y0178781D03*
X0150750Y0182719D03*
X0150750Y0186656D03*
X0210750Y0186656D03*
X0210750Y0182719D03*
X0210750Y0178781D03*
X0210750Y0174844D03*
X0252750Y0174844D03*
X0252750Y0178781D03*
X0252750Y0182719D03*
X0252750Y0186656D03*
X0312750Y0186656D03*
X0312750Y0182719D03*
X0312750Y0178781D03*
X0312750Y0174844D03*
X0312750Y0276844D03*
X0312750Y0280781D03*
X0312750Y0284719D03*
X0312750Y0288656D03*
X0252750Y0288656D03*
X0252750Y0284719D03*
X0252750Y0280781D03*
X0252750Y0276844D03*
X0210750Y0276844D03*
X0210750Y0280781D03*
X0210750Y0284719D03*
X0210750Y0288656D03*
X0150750Y0288656D03*
X0150750Y0284719D03*
X0150750Y0280781D03*
X0150750Y0276844D03*
X0108750Y0276844D03*
X0108750Y0280781D03*
X0108750Y0284719D03*
X0108750Y0288656D03*
X0048750Y0288656D03*
X0048750Y0284719D03*
X0048750Y0280781D03*
X0048750Y0276844D03*
D12*
X0058750Y0279404D03*
X0058750Y0286096D03*
X0078750Y0319404D03*
X0078750Y0326096D03*
X0098750Y0286096D03*
X0098750Y0279404D03*
X0078750Y0224096D03*
X0078750Y0217404D03*
X0058750Y0184096D03*
X0058750Y0177404D03*
X0098750Y0177404D03*
X0098750Y0184096D03*
X0160750Y0184096D03*
X0160750Y0177404D03*
X0200750Y0177404D03*
X0200750Y0184096D03*
X0180750Y0217404D03*
X0180750Y0224096D03*
X0160750Y0279404D03*
X0160750Y0286096D03*
X0180750Y0319404D03*
X0180750Y0326096D03*
X0200750Y0286096D03*
X0200750Y0279404D03*
X0262750Y0279404D03*
X0262750Y0286096D03*
X0282750Y0319404D03*
X0282750Y0326096D03*
X0302750Y0286096D03*
X0302750Y0279404D03*
X0282750Y0224096D03*
X0282750Y0217404D03*
X0262750Y0184096D03*
X0262750Y0177404D03*
X0302750Y0177404D03*
X0302750Y0184096D03*
X0282750Y0122096D03*
X0282750Y0115404D03*
X0262750Y0082096D03*
X0262750Y0075404D03*
X0302750Y0075404D03*
X0302750Y0082096D03*
X0200750Y0082096D03*
X0200750Y0075404D03*
X0160750Y0075404D03*
X0160750Y0082096D03*
X0180750Y0115404D03*
X0180750Y0122096D03*
X0098750Y0082096D03*
X0098750Y0075404D03*
X0058750Y0075404D03*
X0058750Y0082096D03*
X0078750Y0115404D03*
X0078750Y0122096D03*
D13*
X0040404Y0043750D03*
X0047096Y0043750D03*
X0060404Y0058750D03*
X0067096Y0058750D03*
X0090404Y0058750D03*
X0097096Y0058750D03*
X0142404Y0043750D03*
X0149096Y0043750D03*
X0162404Y0058750D03*
X0169096Y0058750D03*
X0192404Y0058750D03*
X0199096Y0058750D03*
X0244404Y0043750D03*
X0251096Y0043750D03*
X0264404Y0058750D03*
X0271096Y0058750D03*
X0294404Y0058750D03*
X0301096Y0058750D03*
X0251096Y0145750D03*
X0244404Y0145750D03*
X0264404Y0160750D03*
X0271096Y0160750D03*
X0294404Y0160750D03*
X0301096Y0160750D03*
X0251096Y0247750D03*
X0244404Y0247750D03*
X0264404Y0262750D03*
X0271096Y0262750D03*
X0294404Y0262750D03*
X0301096Y0262750D03*
X0199096Y0262750D03*
X0192404Y0262750D03*
X0169096Y0262750D03*
X0162404Y0262750D03*
X0149096Y0247750D03*
X0142404Y0247750D03*
X0097096Y0262750D03*
X0090404Y0262750D03*
X0067096Y0262750D03*
X0060404Y0262750D03*
X0047096Y0247750D03*
X0040404Y0247750D03*
X0060404Y0160750D03*
X0067096Y0160750D03*
X0090404Y0160750D03*
X0097096Y0160750D03*
X0142404Y0145750D03*
X0149096Y0145750D03*
X0162404Y0160750D03*
X0169096Y0160750D03*
X0192404Y0160750D03*
X0199096Y0160750D03*
X0047096Y0145750D03*
X0040404Y0145750D03*
D14*
X0067726Y0179750D03*
X0067726Y0184750D03*
X0067726Y0189750D03*
X0067726Y0194750D03*
X0067726Y0199750D03*
X0067726Y0204750D03*
X0067726Y0209750D03*
X0089774Y0209750D03*
X0089774Y0204750D03*
X0089774Y0199750D03*
X0089774Y0194750D03*
X0089774Y0189750D03*
X0089774Y0184750D03*
X0089774Y0179750D03*
X0089774Y0107750D03*
X0089774Y0102750D03*
X0089774Y0097750D03*
X0089774Y0092750D03*
X0089774Y0087750D03*
X0089774Y0082750D03*
X0089774Y0077750D03*
X0067726Y0077750D03*
X0067726Y0082750D03*
X0067726Y0087750D03*
X0067726Y0092750D03*
X0067726Y0097750D03*
X0067726Y0102750D03*
X0067726Y0107750D03*
X0169726Y0107750D03*
X0169726Y0102750D03*
X0169726Y0097750D03*
X0169726Y0092750D03*
X0169726Y0087750D03*
X0169726Y0082750D03*
X0169726Y0077750D03*
X0191774Y0077750D03*
X0191774Y0082750D03*
X0191774Y0087750D03*
X0191774Y0092750D03*
X0191774Y0097750D03*
X0191774Y0102750D03*
X0191774Y0107750D03*
X0191774Y0179750D03*
X0191774Y0184750D03*
X0191774Y0189750D03*
X0191774Y0194750D03*
X0191774Y0199750D03*
X0191774Y0204750D03*
X0191774Y0209750D03*
X0169726Y0209750D03*
X0169726Y0204750D03*
X0169726Y0199750D03*
X0169726Y0194750D03*
X0169726Y0189750D03*
X0169726Y0184750D03*
X0169726Y0179750D03*
X0271726Y0179750D03*
X0271726Y0184750D03*
X0271726Y0189750D03*
X0271726Y0194750D03*
X0271726Y0199750D03*
X0271726Y0204750D03*
X0271726Y0209750D03*
X0293774Y0209750D03*
X0293774Y0204750D03*
X0293774Y0199750D03*
X0293774Y0194750D03*
X0293774Y0189750D03*
X0293774Y0184750D03*
X0293774Y0179750D03*
X0293774Y0107750D03*
X0293774Y0102750D03*
X0293774Y0097750D03*
X0293774Y0092750D03*
X0293774Y0087750D03*
X0293774Y0082750D03*
X0293774Y0077750D03*
X0271726Y0077750D03*
X0271726Y0082750D03*
X0271726Y0087750D03*
X0271726Y0092750D03*
X0271726Y0097750D03*
X0271726Y0102750D03*
X0271726Y0107750D03*
X0271726Y0281750D03*
X0271726Y0286750D03*
X0271726Y0291750D03*
X0271726Y0296750D03*
X0271726Y0301750D03*
X0271726Y0306750D03*
X0271726Y0311750D03*
X0293774Y0311750D03*
X0293774Y0306750D03*
X0293774Y0301750D03*
X0293774Y0296750D03*
X0293774Y0291750D03*
X0293774Y0286750D03*
X0293774Y0281750D03*
X0191774Y0281750D03*
X0191774Y0286750D03*
X0191774Y0291750D03*
X0191774Y0296750D03*
X0191774Y0301750D03*
X0191774Y0306750D03*
X0191774Y0311750D03*
X0169726Y0311750D03*
X0169726Y0306750D03*
X0169726Y0301750D03*
X0169726Y0296750D03*
X0169726Y0291750D03*
X0169726Y0286750D03*
X0169726Y0281750D03*
X0089774Y0281750D03*
X0089774Y0286750D03*
X0089774Y0291750D03*
X0089774Y0296750D03*
X0089774Y0301750D03*
X0089774Y0306750D03*
X0089774Y0311750D03*
X0067726Y0311750D03*
X0067726Y0306750D03*
X0067726Y0301750D03*
X0067726Y0296750D03*
X0067726Y0291750D03*
X0067726Y0286750D03*
X0067726Y0281750D03*
D15*
X0048581Y0254128D02*
X0048581Y0251372D01*
X0045825Y0251372D01*
X0045825Y0254128D01*
X0048581Y0254128D01*
X0048581Y0252494D02*
X0045825Y0252494D01*
X0045825Y0253616D02*
X0048581Y0253616D01*
X0041675Y0254128D02*
X0041675Y0251372D01*
X0038919Y0251372D01*
X0038919Y0254128D01*
X0041675Y0254128D01*
X0041675Y0252494D02*
X0038919Y0252494D01*
X0038919Y0253616D02*
X0041675Y0253616D01*
X0143675Y0254128D02*
X0143675Y0251372D01*
X0140919Y0251372D01*
X0140919Y0254128D01*
X0143675Y0254128D01*
X0143675Y0252494D02*
X0140919Y0252494D01*
X0140919Y0253616D02*
X0143675Y0253616D01*
X0150581Y0254128D02*
X0150581Y0251372D01*
X0147825Y0251372D01*
X0147825Y0254128D01*
X0150581Y0254128D01*
X0150581Y0252494D02*
X0147825Y0252494D01*
X0147825Y0253616D02*
X0150581Y0253616D01*
X0245675Y0254128D02*
X0245675Y0251372D01*
X0242919Y0251372D01*
X0242919Y0254128D01*
X0245675Y0254128D01*
X0245675Y0252494D02*
X0242919Y0252494D01*
X0242919Y0253616D02*
X0245675Y0253616D01*
X0252581Y0254128D02*
X0252581Y0251372D01*
X0249825Y0251372D01*
X0249825Y0254128D01*
X0252581Y0254128D01*
X0252581Y0252494D02*
X0249825Y0252494D01*
X0249825Y0253616D02*
X0252581Y0253616D01*
X0252581Y0152128D02*
X0252581Y0149372D01*
X0249825Y0149372D01*
X0249825Y0152128D01*
X0252581Y0152128D01*
X0252581Y0150494D02*
X0249825Y0150494D01*
X0249825Y0151616D02*
X0252581Y0151616D01*
X0245675Y0152128D02*
X0245675Y0149372D01*
X0242919Y0149372D01*
X0242919Y0152128D01*
X0245675Y0152128D01*
X0245675Y0150494D02*
X0242919Y0150494D01*
X0242919Y0151616D02*
X0245675Y0151616D01*
X0150581Y0152128D02*
X0150581Y0149372D01*
X0147825Y0149372D01*
X0147825Y0152128D01*
X0150581Y0152128D01*
X0150581Y0150494D02*
X0147825Y0150494D01*
X0147825Y0151616D02*
X0150581Y0151616D01*
X0143675Y0152128D02*
X0143675Y0149372D01*
X0140919Y0149372D01*
X0140919Y0152128D01*
X0143675Y0152128D01*
X0143675Y0150494D02*
X0140919Y0150494D01*
X0140919Y0151616D02*
X0143675Y0151616D01*
X0048581Y0152128D02*
X0048581Y0149372D01*
X0045825Y0149372D01*
X0045825Y0152128D01*
X0048581Y0152128D01*
X0048581Y0150494D02*
X0045825Y0150494D01*
X0045825Y0151616D02*
X0048581Y0151616D01*
X0041675Y0152128D02*
X0041675Y0149372D01*
X0038919Y0149372D01*
X0038919Y0152128D01*
X0041675Y0152128D01*
X0041675Y0150494D02*
X0038919Y0150494D01*
X0038919Y0151616D02*
X0041675Y0151616D01*
X0041675Y0050128D02*
X0041675Y0047372D01*
X0038919Y0047372D01*
X0038919Y0050128D01*
X0041675Y0050128D01*
X0041675Y0048494D02*
X0038919Y0048494D01*
X0038919Y0049616D02*
X0041675Y0049616D01*
X0048581Y0050128D02*
X0048581Y0047372D01*
X0045825Y0047372D01*
X0045825Y0050128D01*
X0048581Y0050128D01*
X0048581Y0048494D02*
X0045825Y0048494D01*
X0045825Y0049616D02*
X0048581Y0049616D01*
X0143675Y0050128D02*
X0143675Y0047372D01*
X0140919Y0047372D01*
X0140919Y0050128D01*
X0143675Y0050128D01*
X0143675Y0048494D02*
X0140919Y0048494D01*
X0140919Y0049616D02*
X0143675Y0049616D01*
X0150581Y0050128D02*
X0150581Y0047372D01*
X0147825Y0047372D01*
X0147825Y0050128D01*
X0150581Y0050128D01*
X0150581Y0048494D02*
X0147825Y0048494D01*
X0147825Y0049616D02*
X0150581Y0049616D01*
X0245675Y0050128D02*
X0245675Y0047372D01*
X0242919Y0047372D01*
X0242919Y0050128D01*
X0245675Y0050128D01*
X0245675Y0048494D02*
X0242919Y0048494D01*
X0242919Y0049616D02*
X0245675Y0049616D01*
X0252581Y0050128D02*
X0252581Y0047372D01*
X0249825Y0047372D01*
X0249825Y0050128D01*
X0252581Y0050128D01*
X0252581Y0048494D02*
X0249825Y0048494D01*
X0249825Y0049616D02*
X0252581Y0049616D01*
M02*
